<mxfile host="app.diagrams.net" modified="2022-01-10T10:30:10.127Z" agent="5.0 (Windows NT 10.0; Win64; x64) AppleWebKit/537.36 (KHTML, like Gecko) Chrome/95.0.4638.69 Safari/537.36" etag="C4MuNGe7IMWR1F9JJQMx" version="15.5.5" type="github">
  <diagram id="O1RzaqkVGi5HsKjBnmCo" name="Page-1">
    <mxGraphModel dx="1140" dy="647" grid="1" gridSize="10" guides="1" tooltips="1" connect="1" arrows="1" fold="1" page="1" pageScale="1" pageWidth="827" pageHeight="1169" math="0" shadow="0">
      <root>
        <mxCell id="0" />
        <mxCell id="1" parent="0" />
        <mxCell id="UaSvEZ2unkBsADZibEJ2-1" value="10" style="ellipse;whiteSpace=wrap;html=1;" vertex="1" parent="1">
          <mxGeometry x="280" y="210" width="30" height="30" as="geometry" />
        </mxCell>
        <mxCell id="UaSvEZ2unkBsADZibEJ2-7" value="account.csv" style="swimlane;fontStyle=0;childLayout=stackLayout;horizontal=1;startSize=30;horizontalStack=0;resizeParent=1;resizeParentMax=0;resizeLast=0;collapsible=1;marginBottom=0;" vertex="1" parent="1">
          <mxGeometry x="130" y="100" width="110" height="120" as="geometry" />
        </mxCell>
        <mxCell id="UaSvEZ2unkBsADZibEJ2-8" value="10" style="text;strokeColor=none;fillColor=none;align=left;verticalAlign=middle;spacingLeft=4;spacingRight=4;overflow=hidden;points=[[0,0.5],[1,0.5]];portConstraint=eastwest;rotatable=0;" vertex="1" parent="UaSvEZ2unkBsADZibEJ2-7">
          <mxGeometry y="30" width="110" height="30" as="geometry" />
        </mxCell>
        <mxCell id="UaSvEZ2unkBsADZibEJ2-9" value="11" style="text;strokeColor=none;fillColor=none;align=left;verticalAlign=middle;spacingLeft=4;spacingRight=4;overflow=hidden;points=[[0,0.5],[1,0.5]];portConstraint=eastwest;rotatable=0;" vertex="1" parent="UaSvEZ2unkBsADZibEJ2-7">
          <mxGeometry y="60" width="110" height="30" as="geometry" />
        </mxCell>
        <mxCell id="UaSvEZ2unkBsADZibEJ2-10" value="12" style="text;strokeColor=none;fillColor=none;align=left;verticalAlign=middle;spacingLeft=4;spacingRight=4;overflow=hidden;points=[[0,0.5],[1,0.5]];portConstraint=eastwest;rotatable=0;" vertex="1" parent="UaSvEZ2unkBsADZibEJ2-7">
          <mxGeometry y="90" width="110" height="30" as="geometry" />
        </mxCell>
        <mxCell id="UaSvEZ2unkBsADZibEJ2-11" value="transfer.csv" style="swimlane;fontStyle=0;childLayout=stackLayout;horizontal=1;startSize=30;horizontalStack=0;resizeParent=1;resizeParentMax=0;resizeLast=0;collapsible=1;marginBottom=0;" vertex="1" parent="1">
          <mxGeometry x="130" y="260" width="110" height="180" as="geometry">
            <mxRectangle x="550" y="90" width="100" height="30" as="alternateBounds" />
          </mxGeometry>
        </mxCell>
        <mxCell id="UaSvEZ2unkBsADZibEJ2-12" value="10,11,100,10.50" style="text;strokeColor=none;fillColor=none;align=left;verticalAlign=middle;spacingLeft=4;spacingRight=4;overflow=hidden;points=[[0,0.5],[1,0.5]];portConstraint=eastwest;rotatable=0;" vertex="1" parent="UaSvEZ2unkBsADZibEJ2-11">
          <mxGeometry y="30" width="110" height="30" as="geometry" />
        </mxCell>
        <mxCell id="UaSvEZ2unkBsADZibEJ2-13" value="11,10,101,11.01" style="text;strokeColor=none;fillColor=none;align=left;verticalAlign=middle;spacingLeft=4;spacingRight=4;overflow=hidden;points=[[0,0.5],[1,0.5]];portConstraint=eastwest;rotatable=0;" vertex="1" parent="UaSvEZ2unkBsADZibEJ2-11">
          <mxGeometry y="60" width="110" height="30" as="geometry" />
        </mxCell>
        <mxCell id="UaSvEZ2unkBsADZibEJ2-15" value="11,12,102,11.52" style="text;strokeColor=none;fillColor=none;align=left;verticalAlign=middle;spacingLeft=4;spacingRight=4;overflow=hidden;points=[[0,0.5],[1,0.5]];portConstraint=eastwest;rotatable=0;" vertex="1" parent="UaSvEZ2unkBsADZibEJ2-11">
          <mxGeometry y="90" width="110" height="30" as="geometry" />
        </mxCell>
        <mxCell id="UaSvEZ2unkBsADZibEJ2-14" value="12,10,103,12.03" style="text;strokeColor=none;fillColor=none;align=left;verticalAlign=middle;spacingLeft=4;spacingRight=4;overflow=hidden;points=[[0,0.5],[1,0.5]];portConstraint=eastwest;rotatable=0;" vertex="1" parent="UaSvEZ2unkBsADZibEJ2-11">
          <mxGeometry y="120" width="110" height="30" as="geometry" />
        </mxCell>
        <mxCell id="UaSvEZ2unkBsADZibEJ2-62" value="12,10,104,11.54" style="text;strokeColor=none;fillColor=none;align=left;verticalAlign=middle;spacingLeft=4;spacingRight=4;overflow=hidden;points=[[0,0.5],[1,0.5]];portConstraint=eastwest;rotatable=0;" vertex="1" parent="UaSvEZ2unkBsADZibEJ2-11">
          <mxGeometry y="150" width="110" height="30" as="geometry" />
        </mxCell>
        <mxCell id="UaSvEZ2unkBsADZibEJ2-64" value="Wating Thread" style="swimlane;fontStyle=0;childLayout=stackLayout;horizontal=1;startSize=20;horizontalStack=0;resizeParent=1;resizeParentMax=0;resizeLast=0;collapsible=1;marginBottom=0;" vertex="1" parent="1">
          <mxGeometry x="260" y="750" width="180" height="80" as="geometry" />
        </mxCell>
        <mxCell id="UaSvEZ2unkBsADZibEJ2-65" value="Insert Edge(11,12,102,11.52)" style="text;strokeColor=none;fillColor=none;align=left;verticalAlign=middle;spacingLeft=4;spacingRight=4;overflow=hidden;points=[[0,0.5],[1,0.5]];portConstraint=eastwest;rotatable=0;" vertex="1" parent="UaSvEZ2unkBsADZibEJ2-64">
          <mxGeometry y="20" width="180" height="30" as="geometry" />
        </mxCell>
        <mxCell id="UaSvEZ2unkBsADZibEJ2-66" value="Insert Edge(12,10,103,12.03)" style="text;strokeColor=none;fillColor=none;align=left;verticalAlign=middle;spacingLeft=4;spacingRight=4;overflow=hidden;points=[[0,0.5],[1,0.5]];portConstraint=eastwest;rotatable=0;" vertex="1" parent="UaSvEZ2unkBsADZibEJ2-64">
          <mxGeometry y="50" width="180" height="30" as="geometry" />
        </mxCell>
        <mxCell id="UaSvEZ2unkBsADZibEJ2-68" value="pointer 1&amp;nbsp;→" style="text;html=1;strokeColor=none;fillColor=none;align=center;verticalAlign=middle;whiteSpace=wrap;rounded=0;" vertex="1" parent="1">
          <mxGeometry x="50" y="130" width="80" height="30" as="geometry" />
        </mxCell>
        <mxCell id="UaSvEZ2unkBsADZibEJ2-69" value="pointer 2 →" style="text;html=1;strokeColor=none;fillColor=none;align=center;verticalAlign=middle;whiteSpace=wrap;rounded=0;" vertex="1" parent="1">
          <mxGeometry x="50" y="290" width="80" height="30" as="geometry" />
        </mxCell>
        <mxCell id="UaSvEZ2unkBsADZibEJ2-72" value="Wating Thread" style="swimlane;fontStyle=0;childLayout=stackLayout;horizontal=1;startSize=20;horizontalStack=0;resizeParent=1;resizeParentMax=0;resizeLast=0;collapsible=1;marginBottom=0;" vertex="1" parent="1">
          <mxGeometry x="260" y="390" width="180" height="50" as="geometry" />
        </mxCell>
        <mxCell id="UaSvEZ2unkBsADZibEJ2-73" value="Insert Edge(10,11,100,10.50)" style="text;strokeColor=none;fillColor=none;align=left;verticalAlign=middle;spacingLeft=4;spacingRight=4;overflow=hidden;points=[[0,0.5],[1,0.5]];portConstraint=eastwest;rotatable=0;" vertex="1" parent="UaSvEZ2unkBsADZibEJ2-72">
          <mxGeometry y="20" width="180" height="30" as="geometry" />
        </mxCell>
        <mxCell id="UaSvEZ2unkBsADZibEJ2-94" style="edgeStyle=orthogonalEdgeStyle;rounded=0;orthogonalLoop=1;jettySize=auto;html=1;exitX=1;exitY=0.5;exitDx=0;exitDy=0;entryX=0;entryY=0.5;entryDx=0;entryDy=0;" edge="1" parent="1" source="UaSvEZ2unkBsADZibEJ2-75" target="UaSvEZ2unkBsADZibEJ2-91">
          <mxGeometry relative="1" as="geometry" />
        </mxCell>
        <mxCell id="UaSvEZ2unkBsADZibEJ2-75" value="10" style="ellipse;whiteSpace=wrap;html=1;" vertex="1" parent="1">
          <mxGeometry x="695" y="210" width="30" height="30" as="geometry" />
        </mxCell>
        <mxCell id="UaSvEZ2unkBsADZibEJ2-76" value="account.csv" style="swimlane;fontStyle=0;childLayout=stackLayout;horizontal=1;startSize=30;horizontalStack=0;resizeParent=1;resizeParentMax=0;resizeLast=0;collapsible=1;marginBottom=0;" vertex="1" parent="1">
          <mxGeometry x="560" y="90" width="110" height="120" as="geometry" />
        </mxCell>
        <mxCell id="UaSvEZ2unkBsADZibEJ2-77" value="10" style="text;strokeColor=none;fillColor=none;align=left;verticalAlign=middle;spacingLeft=4;spacingRight=4;overflow=hidden;points=[[0,0.5],[1,0.5]];portConstraint=eastwest;rotatable=0;" vertex="1" parent="UaSvEZ2unkBsADZibEJ2-76">
          <mxGeometry y="30" width="110" height="30" as="geometry" />
        </mxCell>
        <mxCell id="UaSvEZ2unkBsADZibEJ2-78" value="11" style="text;strokeColor=none;fillColor=none;align=left;verticalAlign=middle;spacingLeft=4;spacingRight=4;overflow=hidden;points=[[0,0.5],[1,0.5]];portConstraint=eastwest;rotatable=0;" vertex="1" parent="UaSvEZ2unkBsADZibEJ2-76">
          <mxGeometry y="60" width="110" height="30" as="geometry" />
        </mxCell>
        <mxCell id="UaSvEZ2unkBsADZibEJ2-79" value="12" style="text;strokeColor=none;fillColor=none;align=left;verticalAlign=middle;spacingLeft=4;spacingRight=4;overflow=hidden;points=[[0,0.5],[1,0.5]];portConstraint=eastwest;rotatable=0;" vertex="1" parent="UaSvEZ2unkBsADZibEJ2-76">
          <mxGeometry y="90" width="110" height="30" as="geometry" />
        </mxCell>
        <mxCell id="UaSvEZ2unkBsADZibEJ2-80" value="transfer.csv" style="swimlane;fontStyle=0;childLayout=stackLayout;horizontal=1;startSize=30;horizontalStack=0;resizeParent=1;resizeParentMax=0;resizeLast=0;collapsible=1;marginBottom=0;" vertex="1" parent="1">
          <mxGeometry x="560" y="250" width="110" height="180" as="geometry">
            <mxRectangle x="550" y="90" width="100" height="30" as="alternateBounds" />
          </mxGeometry>
        </mxCell>
        <mxCell id="UaSvEZ2unkBsADZibEJ2-81" value="10,11,100,10.50" style="text;strokeColor=none;fillColor=none;align=left;verticalAlign=middle;spacingLeft=4;spacingRight=4;overflow=hidden;points=[[0,0.5],[1,0.5]];portConstraint=eastwest;rotatable=0;" vertex="1" parent="UaSvEZ2unkBsADZibEJ2-80">
          <mxGeometry y="30" width="110" height="30" as="geometry" />
        </mxCell>
        <mxCell id="UaSvEZ2unkBsADZibEJ2-82" value="11,10,101,11.01" style="text;strokeColor=none;fillColor=none;align=left;verticalAlign=middle;spacingLeft=4;spacingRight=4;overflow=hidden;points=[[0,0.5],[1,0.5]];portConstraint=eastwest;rotatable=0;" vertex="1" parent="UaSvEZ2unkBsADZibEJ2-80">
          <mxGeometry y="60" width="110" height="30" as="geometry" />
        </mxCell>
        <mxCell id="UaSvEZ2unkBsADZibEJ2-83" value="11,12,102,11.52" style="text;strokeColor=none;fillColor=none;align=left;verticalAlign=middle;spacingLeft=4;spacingRight=4;overflow=hidden;points=[[0,0.5],[1,0.5]];portConstraint=eastwest;rotatable=0;" vertex="1" parent="UaSvEZ2unkBsADZibEJ2-80">
          <mxGeometry y="90" width="110" height="30" as="geometry" />
        </mxCell>
        <mxCell id="UaSvEZ2unkBsADZibEJ2-84" value="12,10,103,12.03" style="text;strokeColor=none;fillColor=none;align=left;verticalAlign=middle;spacingLeft=4;spacingRight=4;overflow=hidden;points=[[0,0.5],[1,0.5]];portConstraint=eastwest;rotatable=0;" vertex="1" parent="UaSvEZ2unkBsADZibEJ2-80">
          <mxGeometry y="120" width="110" height="30" as="geometry" />
        </mxCell>
        <mxCell id="UaSvEZ2unkBsADZibEJ2-85" value="12,10,104,11.54" style="text;strokeColor=none;fillColor=none;align=left;verticalAlign=middle;spacingLeft=4;spacingRight=4;overflow=hidden;points=[[0,0.5],[1,0.5]];portConstraint=eastwest;rotatable=0;" vertex="1" parent="UaSvEZ2unkBsADZibEJ2-80">
          <mxGeometry y="150" width="110" height="30" as="geometry" />
        </mxCell>
        <mxCell id="UaSvEZ2unkBsADZibEJ2-87" value="pointer 1&amp;nbsp;→" style="text;html=1;strokeColor=none;fillColor=none;align=center;verticalAlign=middle;whiteSpace=wrap;rounded=0;" vertex="1" parent="1">
          <mxGeometry x="480" y="145" width="80" height="30" as="geometry" />
        </mxCell>
        <mxCell id="UaSvEZ2unkBsADZibEJ2-88" value="pointer 2 →" style="text;html=1;strokeColor=none;fillColor=none;align=center;verticalAlign=middle;whiteSpace=wrap;rounded=0;" vertex="1" parent="1">
          <mxGeometry x="480" y="310" width="80" height="30" as="geometry" />
        </mxCell>
        <mxCell id="UaSvEZ2unkBsADZibEJ2-89" value="Wating Thread" style="swimlane;fontStyle=0;childLayout=stackLayout;horizontal=1;startSize=20;horizontalStack=0;resizeParent=1;resizeParentMax=0;resizeLast=0;collapsible=1;marginBottom=0;" vertex="1" parent="1">
          <mxGeometry x="690" y="380" width="180" height="50" as="geometry" />
        </mxCell>
        <mxCell id="UaSvEZ2unkBsADZibEJ2-96" style="edgeStyle=orthogonalEdgeStyle;rounded=0;orthogonalLoop=1;jettySize=auto;html=1;exitX=0.5;exitY=1;exitDx=0;exitDy=0;entryX=0.5;entryY=1;entryDx=0;entryDy=0;" edge="1" parent="1" source="UaSvEZ2unkBsADZibEJ2-91" target="UaSvEZ2unkBsADZibEJ2-75">
          <mxGeometry relative="1" as="geometry" />
        </mxCell>
        <mxCell id="UaSvEZ2unkBsADZibEJ2-91" value="11" style="ellipse;whiteSpace=wrap;html=1;" vertex="1" parent="1">
          <mxGeometry x="810" y="210" width="30" height="30" as="geometry" />
        </mxCell>
        <mxCell id="UaSvEZ2unkBsADZibEJ2-92" value="（1）" style="text;html=1;strokeColor=none;fillColor=none;align=center;verticalAlign=middle;whiteSpace=wrap;rounded=0;" vertex="1" parent="1">
          <mxGeometry x="200" y="450" width="80" height="30" as="geometry" />
        </mxCell>
        <mxCell id="UaSvEZ2unkBsADZibEJ2-93" value="（2）" style="text;html=1;strokeColor=none;fillColor=none;align=center;verticalAlign=middle;whiteSpace=wrap;rounded=0;" vertex="1" parent="1">
          <mxGeometry x="670" y="450" width="80" height="30" as="geometry" />
        </mxCell>
        <mxCell id="UaSvEZ2unkBsADZibEJ2-95" value="100,10.50" style="text;html=1;strokeColor=none;fillColor=none;align=center;verticalAlign=middle;whiteSpace=wrap;rounded=0;" vertex="1" parent="1">
          <mxGeometry x="725" y="200" width="80" height="30" as="geometry" />
        </mxCell>
        <mxCell id="UaSvEZ2unkBsADZibEJ2-97" value="101,11.01" style="text;html=1;strokeColor=none;fillColor=none;align=center;verticalAlign=middle;whiteSpace=wrap;rounded=0;" vertex="1" parent="1">
          <mxGeometry x="725" y="260" width="80" height="30" as="geometry" />
        </mxCell>
        <mxCell id="UaSvEZ2unkBsADZibEJ2-98" style="edgeStyle=orthogonalEdgeStyle;rounded=0;orthogonalLoop=1;jettySize=auto;html=1;exitX=1;exitY=0.5;exitDx=0;exitDy=0;entryX=0;entryY=0.5;entryDx=0;entryDy=0;" edge="1" parent="1" source="UaSvEZ2unkBsADZibEJ2-99" target="UaSvEZ2unkBsADZibEJ2-114">
          <mxGeometry relative="1" as="geometry" />
        </mxCell>
        <mxCell id="UaSvEZ2unkBsADZibEJ2-99" value="10" style="ellipse;whiteSpace=wrap;html=1;" vertex="1" parent="1">
          <mxGeometry x="255" y="610" width="30" height="30" as="geometry" />
        </mxCell>
        <mxCell id="UaSvEZ2unkBsADZibEJ2-100" value="account.csv" style="swimlane;fontStyle=0;childLayout=stackLayout;horizontal=1;startSize=30;horizontalStack=0;resizeParent=1;resizeParentMax=0;resizeLast=0;collapsible=1;marginBottom=0;" vertex="1" parent="1">
          <mxGeometry x="120" y="490" width="110" height="120" as="geometry" />
        </mxCell>
        <mxCell id="UaSvEZ2unkBsADZibEJ2-101" value="10" style="text;strokeColor=none;fillColor=none;align=left;verticalAlign=middle;spacingLeft=4;spacingRight=4;overflow=hidden;points=[[0,0.5],[1,0.5]];portConstraint=eastwest;rotatable=0;" vertex="1" parent="UaSvEZ2unkBsADZibEJ2-100">
          <mxGeometry y="30" width="110" height="30" as="geometry" />
        </mxCell>
        <mxCell id="UaSvEZ2unkBsADZibEJ2-102" value="11" style="text;strokeColor=none;fillColor=none;align=left;verticalAlign=middle;spacingLeft=4;spacingRight=4;overflow=hidden;points=[[0,0.5],[1,0.5]];portConstraint=eastwest;rotatable=0;" vertex="1" parent="UaSvEZ2unkBsADZibEJ2-100">
          <mxGeometry y="60" width="110" height="30" as="geometry" />
        </mxCell>
        <mxCell id="UaSvEZ2unkBsADZibEJ2-103" value="12" style="text;strokeColor=none;fillColor=none;align=left;verticalAlign=middle;spacingLeft=4;spacingRight=4;overflow=hidden;points=[[0,0.5],[1,0.5]];portConstraint=eastwest;rotatable=0;" vertex="1" parent="UaSvEZ2unkBsADZibEJ2-100">
          <mxGeometry y="90" width="110" height="30" as="geometry" />
        </mxCell>
        <mxCell id="UaSvEZ2unkBsADZibEJ2-104" value="transfer.csv" style="swimlane;fontStyle=0;childLayout=stackLayout;horizontal=1;startSize=30;horizontalStack=0;resizeParent=1;resizeParentMax=0;resizeLast=0;collapsible=1;marginBottom=0;" vertex="1" parent="1">
          <mxGeometry x="120" y="650" width="110" height="180" as="geometry">
            <mxRectangle x="550" y="90" width="100" height="30" as="alternateBounds" />
          </mxGeometry>
        </mxCell>
        <mxCell id="UaSvEZ2unkBsADZibEJ2-105" value="10,11,100,10.50" style="text;strokeColor=none;fillColor=none;align=left;verticalAlign=middle;spacingLeft=4;spacingRight=4;overflow=hidden;points=[[0,0.5],[1,0.5]];portConstraint=eastwest;rotatable=0;" vertex="1" parent="UaSvEZ2unkBsADZibEJ2-104">
          <mxGeometry y="30" width="110" height="30" as="geometry" />
        </mxCell>
        <mxCell id="UaSvEZ2unkBsADZibEJ2-106" value="11,10,101,11.01" style="text;strokeColor=none;fillColor=none;align=left;verticalAlign=middle;spacingLeft=4;spacingRight=4;overflow=hidden;points=[[0,0.5],[1,0.5]];portConstraint=eastwest;rotatable=0;" vertex="1" parent="UaSvEZ2unkBsADZibEJ2-104">
          <mxGeometry y="60" width="110" height="30" as="geometry" />
        </mxCell>
        <mxCell id="UaSvEZ2unkBsADZibEJ2-107" value="11,12,102,11.52" style="text;strokeColor=none;fillColor=none;align=left;verticalAlign=middle;spacingLeft=4;spacingRight=4;overflow=hidden;points=[[0,0.5],[1,0.5]];portConstraint=eastwest;rotatable=0;" vertex="1" parent="UaSvEZ2unkBsADZibEJ2-104">
          <mxGeometry y="90" width="110" height="30" as="geometry" />
        </mxCell>
        <mxCell id="UaSvEZ2unkBsADZibEJ2-108" value="12,10,103,12.03" style="text;strokeColor=none;fillColor=none;align=left;verticalAlign=middle;spacingLeft=4;spacingRight=4;overflow=hidden;points=[[0,0.5],[1,0.5]];portConstraint=eastwest;rotatable=0;" vertex="1" parent="UaSvEZ2unkBsADZibEJ2-104">
          <mxGeometry y="120" width="110" height="30" as="geometry" />
        </mxCell>
        <mxCell id="UaSvEZ2unkBsADZibEJ2-109" value="12,10,104,11.54" style="text;strokeColor=none;fillColor=none;align=left;verticalAlign=middle;spacingLeft=4;spacingRight=4;overflow=hidden;points=[[0,0.5],[1,0.5]];portConstraint=eastwest;rotatable=0;" vertex="1" parent="UaSvEZ2unkBsADZibEJ2-104">
          <mxGeometry y="150" width="110" height="30" as="geometry" />
        </mxCell>
        <mxCell id="UaSvEZ2unkBsADZibEJ2-110" value="pointer 1&amp;nbsp;→" style="text;html=1;strokeColor=none;fillColor=none;align=center;verticalAlign=middle;whiteSpace=wrap;rounded=0;" vertex="1" parent="1">
          <mxGeometry x="40" y="545" width="80" height="30" as="geometry" />
        </mxCell>
        <mxCell id="UaSvEZ2unkBsADZibEJ2-111" value="pointer 2 →" style="text;html=1;strokeColor=none;fillColor=none;align=center;verticalAlign=middle;whiteSpace=wrap;rounded=0;" vertex="1" parent="1">
          <mxGeometry x="40" y="770" width="80" height="30" as="geometry" />
        </mxCell>
        <mxCell id="UaSvEZ2unkBsADZibEJ2-113" style="edgeStyle=orthogonalEdgeStyle;rounded=0;orthogonalLoop=1;jettySize=auto;html=1;exitX=0.5;exitY=1;exitDx=0;exitDy=0;entryX=0.5;entryY=1;entryDx=0;entryDy=0;" edge="1" parent="1" source="UaSvEZ2unkBsADZibEJ2-114" target="UaSvEZ2unkBsADZibEJ2-99">
          <mxGeometry relative="1" as="geometry" />
        </mxCell>
        <mxCell id="UaSvEZ2unkBsADZibEJ2-114" value="11" style="ellipse;whiteSpace=wrap;html=1;" vertex="1" parent="1">
          <mxGeometry x="370" y="610" width="30" height="30" as="geometry" />
        </mxCell>
        <mxCell id="UaSvEZ2unkBsADZibEJ2-115" value="（3）" style="text;html=1;strokeColor=none;fillColor=none;align=center;verticalAlign=middle;whiteSpace=wrap;rounded=0;" vertex="1" parent="1">
          <mxGeometry x="200" y="840" width="80" height="30" as="geometry" />
        </mxCell>
        <mxCell id="UaSvEZ2unkBsADZibEJ2-116" value="100,10.50" style="text;html=1;strokeColor=none;fillColor=none;align=center;verticalAlign=middle;whiteSpace=wrap;rounded=0;" vertex="1" parent="1">
          <mxGeometry x="285" y="600" width="80" height="30" as="geometry" />
        </mxCell>
        <mxCell id="UaSvEZ2unkBsADZibEJ2-117" value="101,11.01" style="text;html=1;strokeColor=none;fillColor=none;align=center;verticalAlign=middle;whiteSpace=wrap;rounded=0;" vertex="1" parent="1">
          <mxGeometry x="285" y="660" width="80" height="30" as="geometry" />
        </mxCell>
        <mxCell id="UaSvEZ2unkBsADZibEJ2-119" value="Wating Thread" style="swimlane;fontStyle=0;childLayout=stackLayout;horizontal=1;startSize=20;horizontalStack=0;resizeParent=1;resizeParentMax=0;resizeLast=0;collapsible=1;marginBottom=0;" vertex="1" parent="1">
          <mxGeometry x="700" y="780" width="180" height="50" as="geometry" />
        </mxCell>
        <mxCell id="UaSvEZ2unkBsADZibEJ2-122" style="edgeStyle=orthogonalEdgeStyle;rounded=0;orthogonalLoop=1;jettySize=auto;html=1;exitX=1;exitY=0.5;exitDx=0;exitDy=0;entryX=0;entryY=0.5;entryDx=0;entryDy=0;" edge="1" parent="1" source="UaSvEZ2unkBsADZibEJ2-123" target="UaSvEZ2unkBsADZibEJ2-137">
          <mxGeometry relative="1" as="geometry" />
        </mxCell>
        <mxCell id="UaSvEZ2unkBsADZibEJ2-123" value="10" style="ellipse;whiteSpace=wrap;html=1;" vertex="1" parent="1">
          <mxGeometry x="712.5" y="610" width="30" height="30" as="geometry" />
        </mxCell>
        <mxCell id="UaSvEZ2unkBsADZibEJ2-124" value="account.csv" style="swimlane;fontStyle=0;childLayout=stackLayout;horizontal=1;startSize=30;horizontalStack=0;resizeParent=1;resizeParentMax=0;resizeLast=0;collapsible=1;marginBottom=0;" vertex="1" parent="1">
          <mxGeometry x="560" y="490" width="110" height="120" as="geometry" />
        </mxCell>
        <mxCell id="UaSvEZ2unkBsADZibEJ2-125" value="10" style="text;strokeColor=none;fillColor=none;align=left;verticalAlign=middle;spacingLeft=4;spacingRight=4;overflow=hidden;points=[[0,0.5],[1,0.5]];portConstraint=eastwest;rotatable=0;" vertex="1" parent="UaSvEZ2unkBsADZibEJ2-124">
          <mxGeometry y="30" width="110" height="30" as="geometry" />
        </mxCell>
        <mxCell id="UaSvEZ2unkBsADZibEJ2-126" value="11" style="text;strokeColor=none;fillColor=none;align=left;verticalAlign=middle;spacingLeft=4;spacingRight=4;overflow=hidden;points=[[0,0.5],[1,0.5]];portConstraint=eastwest;rotatable=0;" vertex="1" parent="UaSvEZ2unkBsADZibEJ2-124">
          <mxGeometry y="60" width="110" height="30" as="geometry" />
        </mxCell>
        <mxCell id="UaSvEZ2unkBsADZibEJ2-127" value="12" style="text;strokeColor=none;fillColor=none;align=left;verticalAlign=middle;spacingLeft=4;spacingRight=4;overflow=hidden;points=[[0,0.5],[1,0.5]];portConstraint=eastwest;rotatable=0;" vertex="1" parent="UaSvEZ2unkBsADZibEJ2-124">
          <mxGeometry y="90" width="110" height="30" as="geometry" />
        </mxCell>
        <mxCell id="UaSvEZ2unkBsADZibEJ2-128" value="transfer.csv" style="swimlane;fontStyle=0;childLayout=stackLayout;horizontal=1;startSize=30;horizontalStack=0;resizeParent=1;resizeParentMax=0;resizeLast=0;collapsible=1;marginBottom=0;" vertex="1" parent="1">
          <mxGeometry x="560" y="650" width="110" height="180" as="geometry">
            <mxRectangle x="550" y="90" width="100" height="30" as="alternateBounds" />
          </mxGeometry>
        </mxCell>
        <mxCell id="UaSvEZ2unkBsADZibEJ2-129" value="10,11,100,10.50" style="text;strokeColor=none;fillColor=none;align=left;verticalAlign=middle;spacingLeft=4;spacingRight=4;overflow=hidden;points=[[0,0.5],[1,0.5]];portConstraint=eastwest;rotatable=0;" vertex="1" parent="UaSvEZ2unkBsADZibEJ2-128">
          <mxGeometry y="30" width="110" height="30" as="geometry" />
        </mxCell>
        <mxCell id="UaSvEZ2unkBsADZibEJ2-130" value="11,10,101,11.01" style="text;strokeColor=none;fillColor=none;align=left;verticalAlign=middle;spacingLeft=4;spacingRight=4;overflow=hidden;points=[[0,0.5],[1,0.5]];portConstraint=eastwest;rotatable=0;" vertex="1" parent="UaSvEZ2unkBsADZibEJ2-128">
          <mxGeometry y="60" width="110" height="30" as="geometry" />
        </mxCell>
        <mxCell id="UaSvEZ2unkBsADZibEJ2-131" value="11,12,102,11.52" style="text;strokeColor=none;fillColor=none;align=left;verticalAlign=middle;spacingLeft=4;spacingRight=4;overflow=hidden;points=[[0,0.5],[1,0.5]];portConstraint=eastwest;rotatable=0;" vertex="1" parent="UaSvEZ2unkBsADZibEJ2-128">
          <mxGeometry y="90" width="110" height="30" as="geometry" />
        </mxCell>
        <mxCell id="UaSvEZ2unkBsADZibEJ2-132" value="12,10,103,12.03" style="text;strokeColor=none;fillColor=none;align=left;verticalAlign=middle;spacingLeft=4;spacingRight=4;overflow=hidden;points=[[0,0.5],[1,0.5]];portConstraint=eastwest;rotatable=0;" vertex="1" parent="UaSvEZ2unkBsADZibEJ2-128">
          <mxGeometry y="120" width="110" height="30" as="geometry" />
        </mxCell>
        <mxCell id="UaSvEZ2unkBsADZibEJ2-133" value="12,10,104,11.54" style="text;strokeColor=none;fillColor=none;align=left;verticalAlign=middle;spacingLeft=4;spacingRight=4;overflow=hidden;points=[[0,0.5],[1,0.5]];portConstraint=eastwest;rotatable=0;" vertex="1" parent="UaSvEZ2unkBsADZibEJ2-128">
          <mxGeometry y="150" width="110" height="30" as="geometry" />
        </mxCell>
        <mxCell id="UaSvEZ2unkBsADZibEJ2-134" value="pointer 1&amp;nbsp;→" style="text;html=1;strokeColor=none;fillColor=none;align=center;verticalAlign=middle;whiteSpace=wrap;rounded=0;" vertex="1" parent="1">
          <mxGeometry x="480" y="545" width="80" height="30" as="geometry" />
        </mxCell>
        <mxCell id="UaSvEZ2unkBsADZibEJ2-135" value="pointer 2 →" style="text;html=1;strokeColor=none;fillColor=none;align=center;verticalAlign=middle;whiteSpace=wrap;rounded=0;" vertex="1" parent="1">
          <mxGeometry x="480" y="770" width="80" height="30" as="geometry" />
        </mxCell>
        <mxCell id="UaSvEZ2unkBsADZibEJ2-136" style="edgeStyle=orthogonalEdgeStyle;rounded=0;orthogonalLoop=1;jettySize=auto;html=1;exitX=0.5;exitY=1;exitDx=0;exitDy=0;entryX=0.5;entryY=1;entryDx=0;entryDy=0;" edge="1" parent="1" source="UaSvEZ2unkBsADZibEJ2-137" target="UaSvEZ2unkBsADZibEJ2-123">
          <mxGeometry relative="1" as="geometry" />
        </mxCell>
        <mxCell id="UaSvEZ2unkBsADZibEJ2-147" style="edgeStyle=orthogonalEdgeStyle;rounded=0;orthogonalLoop=1;jettySize=auto;html=1;entryX=1;entryY=0.5;entryDx=0;entryDy=0;" edge="1" parent="1" source="UaSvEZ2unkBsADZibEJ2-137" target="UaSvEZ2unkBsADZibEJ2-141">
          <mxGeometry relative="1" as="geometry">
            <Array as="points">
              <mxPoint x="843" y="535" />
            </Array>
          </mxGeometry>
        </mxCell>
        <mxCell id="UaSvEZ2unkBsADZibEJ2-137" value="11" style="ellipse;whiteSpace=wrap;html=1;" vertex="1" parent="1">
          <mxGeometry x="827.5" y="610" width="30" height="30" as="geometry" />
        </mxCell>
        <mxCell id="UaSvEZ2unkBsADZibEJ2-138" value="（4）" style="text;html=1;strokeColor=none;fillColor=none;align=center;verticalAlign=middle;whiteSpace=wrap;rounded=0;" vertex="1" parent="1">
          <mxGeometry x="640" y="840" width="80" height="30" as="geometry" />
        </mxCell>
        <mxCell id="UaSvEZ2unkBsADZibEJ2-139" value="100,10.50" style="text;html=1;strokeColor=none;fillColor=none;align=center;verticalAlign=middle;whiteSpace=wrap;rounded=0;" vertex="1" parent="1">
          <mxGeometry x="742.5" y="600" width="80" height="30" as="geometry" />
        </mxCell>
        <mxCell id="UaSvEZ2unkBsADZibEJ2-140" value="101,11.01" style="text;html=1;strokeColor=none;fillColor=none;align=center;verticalAlign=middle;whiteSpace=wrap;rounded=0;" vertex="1" parent="1">
          <mxGeometry x="742.5" y="660" width="80" height="30" as="geometry" />
        </mxCell>
        <mxCell id="UaSvEZ2unkBsADZibEJ2-146" style="edgeStyle=orthogonalEdgeStyle;rounded=0;orthogonalLoop=1;jettySize=auto;html=1;entryX=0.5;entryY=0;entryDx=0;entryDy=0;" edge="1" parent="1" source="UaSvEZ2unkBsADZibEJ2-141" target="UaSvEZ2unkBsADZibEJ2-123">
          <mxGeometry relative="1" as="geometry" />
        </mxCell>
        <mxCell id="UaSvEZ2unkBsADZibEJ2-141" value="12" style="ellipse;whiteSpace=wrap;html=1;" vertex="1" parent="1">
          <mxGeometry x="767.5" y="520" width="30" height="30" as="geometry" />
        </mxCell>
        <mxCell id="UaSvEZ2unkBsADZibEJ2-144" value="102,11.52" style="text;html=1;strokeColor=none;fillColor=none;align=center;verticalAlign=middle;whiteSpace=wrap;rounded=0;" vertex="1" parent="1">
          <mxGeometry x="785" y="510" width="80" height="30" as="geometry" />
        </mxCell>
        <mxCell id="UaSvEZ2unkBsADZibEJ2-148" value="103,11.54" style="text;html=1;strokeColor=none;fillColor=none;align=center;verticalAlign=middle;whiteSpace=wrap;rounded=0;" vertex="1" parent="1">
          <mxGeometry x="695" y="510" width="80" height="30" as="geometry" />
        </mxCell>
      </root>
    </mxGraphModel>
  </diagram>
</mxfile>
